# xmcd
#
# Track frame offsets:
# 150
# 22295
# 52392
# 81486
#
# Disc length: 1428 seconds
#
# Revision: 0
# Processed by: cddbd v1.5.1PL0 Copyright (c) Steve Scherf et al.
# Submitted via: Audion 2.5.0 (http://www.panic.com/audion/)
#
DISCID=3a059204
DTITLE=Linea Viola - Linea Viola
DYEAR=1900
DGENRE=
TTITLE0=01
TTITLE1=02
TTITLE2=03
TTITLE3=04
EXTD=
EXTT0=
EXTT1=
EXTT2=
EXTT3=
PLAYORDER=
